<svg width="64" height="64" viewBox="0 0 64 64" fill="none" xmlns="http://www.w3.org/2000/svg">
<path d="M60 24.05V22H58V24H57.5C57.0055 24 56.5222 24.1466 56.1111 24.4213C55.6999 24.696 55.3795 25.0865 55.1903 25.5433C55.0011 26.0001 54.9516 26.5028 55.048 26.9877C55.1445 27.4727 55.3826 27.9181 55.7322 28.2678C56.0819 28.6174 56.5273 28.8555 57.0123 28.952C57.4972 29.0484 57.9999 28.9989 58.4567 28.8097C58.9135 28.6205 59.304 28.3 59.5787 27.8889C59.8534 27.4778 60 26.9945 60 26.5V29.5C60 29.6326 59.9473 29.7598 59.8536 29.8536C59.7598 29.9473 59.6326 30 59.5 30H55.155C53.7531 28.4275 52.0345 27.1691 50.1121 26.3074C48.1896 25.4457 46.1067 25.0002 44 25H24C22.5053 24.9982 21.0187 25.2207 19.59 25.66L13 22V29.83C12.1108 30.7829 11.3509 31.8487 10.74 33H3V46H10.26C11.2229 48.204 12.701 50.1446 14.57 51.6586C16.4389 53.1725 18.6441 54.2156 21 54.7V58C21 58.7956 21.3161 59.5587 21.8787 60.1213C22.4413 60.6839 23.2044 61 24 61C24.7956 61 25.5587 60.6839 26.1213 60.1213C26.6839 59.5587 27 58.7956 27 58V55H41V58C41 58.7956 41.3161 59.5587 41.8787 60.1213C42.4413 60.6839 43.2044 61 44 61C44.7956 61 45.5587 60.6839 46.1213 60.1213C46.6839 59.5587 47 58.7956 47 58V54.7C49.3795 54.2172 51.606 53.1632 53.4876 51.6287C55.3693 50.0943 56.8497 48.1254 57.8014 45.8917C58.753 43.6579 59.1474 41.2263 58.9504 38.8063C58.7535 36.3863 57.9713 34.0505 56.671 32H59.5C60.163 32 60.7989 31.7366 61.2678 31.2678C61.7366 30.7989 62 30.163 62 29.5V26.5C62.0001 25.9237 61.8011 25.365 61.4367 24.9185C61.0722 24.4721 60.5647 24.1653 60 24.05ZM58 26.5C58 26.5989 57.9707 26.6956 57.9157 26.7778C57.8608 26.86 57.7827 26.9241 57.6913 26.9619C57.6 26.9998 57.4994 27.0097 57.4025 26.9904C57.3055 26.9711 57.2164 26.9235 57.1464 26.8536C57.0765 26.7836 57.0289 26.6945 57.0096 26.5975C56.9903 26.5006 57.0002 26.4 57.0381 26.3087C57.0759 26.2173 57.14 26.1392 57.2222 26.0843C57.3044 26.0293 57.4011 26 57.5 26H58V26.5Z" fill="#F072AE"/>
<path d="M51 31.5C51 32.163 50.7366 32.7989 50.2678 33.2678C49.7989 33.7366 49.163 34 48.5 34H21.5C20.837 34 20.2011 33.7366 19.7322 33.2678C19.2634 32.7989 19 32.163 19 31.5C19 30.837 19.2634 30.2011 19.7322 29.7322C20.2011 29.2634 20.837 29 21.5 29H48.5C48.8286 28.9989 49.1542 29.0629 49.458 29.1881C49.7617 29.3134 50.0378 29.4975 50.2701 29.7299C50.5025 29.9622 50.6866 30.2382 50.8119 30.542C50.9371 30.8458 51.0011 31.1714 51 31.5Z" fill="#CD2A00"/>
<path d="M35 25C39.4183 25 43 21.4183 43 17C43 12.5817 39.4183 9 35 9C30.5817 9 27 12.5817 27 17C27 21.4183 30.5817 25 35 25Z" fill="#FF9811"/>
<path d="M35 34C39.4183 34 43 30.4183 43 26C43 21.5817 39.4183 18 35 18C30.5817 18 27 21.5817 27 26C27 30.4183 30.5817 34 35 34Z" fill="#FFDA44"/>
<path d="M16 38C15.6044 38 15.2178 37.8827 14.8889 37.6629C14.56 37.4432 14.3036 37.1308 14.1522 36.7654C14.0009 36.3999 13.9613 35.9978 14.0384 35.6098C14.1156 35.2219 14.3061 34.8655 14.5858 34.5858C14.8655 34.3061 15.2219 34.1156 15.6098 34.0384C15.9978 33.9613 16.3999 34.0009 16.7654 34.1522C17.1308 34.3036 17.4432 34.56 17.6629 34.8889C17.8827 35.2178 18 35.6044 18 36C18 36.5304 17.7893 37.0391 17.4142 37.4142C17.0391 37.7893 16.5304 38 16 38ZM36 25V23C36.2652 23 36.5196 23.1054 36.7071 23.2929C36.8946 23.4804 37 23.7348 37 24H39C39 23.2044 38.6839 22.4413 38.1213 21.8787C37.5587 21.3161 36.7957 21 36 21V20H34V21C33.2044 21 32.4413 21.3161 31.8787 21.8787C31.3161 22.4413 31 23.2044 31 24C31 24.7956 31.3161 25.5587 31.8787 26.1213C32.4413 26.6839 33.2044 27 34 27V29C33.7348 29 33.4804 28.8946 33.2929 28.7071C33.1054 28.5196 33 28.2652 33 28H31C31 28.7956 31.3161 29.5587 31.8787 30.1213C32.4413 30.6839 33.2044 31 34 31V32H36V31C36.7957 31 37.5587 30.6839 38.1213 30.1213C38.6839 29.5587 39 28.7956 39 28C39 27.2044 38.6839 26.4413 38.1213 25.8787C37.5587 25.3161 36.7957 25 36 25ZM33 24C33 23.7348 33.1054 23.4804 33.2929 23.2929C33.4804 23.1054 33.7348 23 34 23V25C33.7348 25 33.4804 24.8946 33.2929 24.7071C33.1054 24.5196 33 24.2652 33 24ZM36 29V27C36.2652 27 36.5196 27.1054 36.7071 27.2929C36.8946 27.4804 37 27.7348 37 28C37 28.2652 36.8946 28.5196 36.7071 28.7071C36.5196 28.8946 36.2652 29 36 29Z" fill="white"/>
<path d="M36 2H34V6H36V2Z" fill="#FFDA44"/>
<path d="M29 5H27V8H29V5Z" fill="#FFDA44"/>
<path d="M43 5H41V8H43V5Z" fill="#FFDA44"/>
</svg>
